# xmcd CD database file
#
# Track frame offsets:
#	150
#	11059
#	28828
#	51992
#	86265
#	103336
#	143164
#	175289
#	201958
#	236447
#	253349
#	274632
#	280335
#
# Disc length: 4348 seconds
#
# Revision: 1
# Processed by: cddbd v1.5.1PL0 Copyright (c) Steve Scherf et al.
# Submitted via: CDex 1.51
#
DISCID=bf10fa0d
DTITLE=Fishmans - 宇宙 ベスト・オブ・フィッシュマンズ [RARE TRACKS and B-SIDES 1995-1998] [Disc 2]
DYEAR=2005
DGENRE=Japanese Pop
TTITLE0=Oh! Crime [DUB] (analog 「Oh! Mountain」1995)
TTITLE1=ナイトクルージング (Demo 1995)
TTITLE2=ずっと前 (Demo 1995)
TTITLE3=ナイトクルージング [Plasma Mix] (Sg. B-SIDE 1995)
TTITLE4=SUNNY BLUE [HICKSVILLE MIX] (Sg. B-SIDE 1996)
TTITLE5=FISH IS WATCHING YOU (Unreleased Outtake 1996)
TTITLE6=I DUB FISH (Sg. B-SIDE 1996)
TTITLE7=バックビートにのっかって (Demo 1996)
TTITLE8=Weather Report (Demo 1997)
TTITLE9=MAGIC LOVE [REMIX] (Sg. B-SIDE 1997)
TTITLE10=それはただの気分さ (Demo 1997)
TTITLE11=A PIECE OF FUTURE (Demo 1998)
TTITLE12=A PIECE OF FUTURE (Live 1998)
EXTD=YEAR: 2005
EXTT0=
EXTT1=
EXTT2=
EXTT3=
EXTT4=
EXTT5=
EXTT6=
EXTT7=
EXTT8=
EXTT9=
EXTT10=
EXTT11=
EXTT12=
PLAYORDER=
